Simulation
nRows=40
nColumns=15
endheader
time  TH_x TH_y TH_z SC_y  SC_z  SC_x  AC_y  AC_z  AC_x  GH_y  GH_z  GH_yy  EL_x  PS_y
8.6175  0.000000  0.000000  0.000000  -35.04520007036657  2.9958983703559148  -7.319807360448845  41.31766582968031  12.663738700689004  4.4276242303421025  112.94386654274034  5.004312838090389  -97.80011146353483  20.585694646590714  120.000000
8.67495  0.000000  0.000000  0.000000  -34.60755959042961  2.914988016390756  -7.765538057255807  40.78401944504251  12.594423904146419  4.195714136312418  103.27121207881552  5.507171498130316  -88.18388023031156  20.519598574237243  120.000000
8.7324  0.000000  0.000000  0.000000  -34.147969970454085  2.770183081453032  -8.35542183529566  40.26543497843084  12.623780644919915  4.047605682800058  94.10405415497651  6.571144753171126  -78.90022175949134  20.62253830856445  120.000000
8.78985  0.000000  0.000000  0.000000  -33.706653317755894  2.568521386360757  -9.065331999208153  39.776267480559206  12.74274043199165  4.0101310237157275  87.08774064432646  8.287438666905786  -71.64285358610316  20.876127164581263  120.000000
8.8473  0.000000  0.000000  0.000000  -33.31456551352941  2.343981812019434  -9.885528353704055  39.33833761001531  12.946805010840723  4.094440614152179  82.47068916499006  10.689429039962516  -66.75308361621317  21.221641938740895  120.000000
8.90475  0.000000  0.000000  0.000000  -32.99274800052356  2.1388501325160036  -10.811445359421585  38.96000017328833  13.227695734708105  4.316625253755417  79.70900103144365  13.761315416289976  -63.7924851374245  21.587626162982584  120.000000
8.9622  0.000000  0.000000  0.000000  -32.7499633681568  1.9892746130280345  -11.834575908508782  38.63492793015315  13.570936215953212  4.706774900058032  78.1356518786434  17.43716113774421  -62.181820228712574  21.91374832259006  120.000000
9.01965  0.000000  0.000000  0.000000  -32.58425940449279  1.9210573865972032  -12.938305592416668  38.36475616606735  13.96456988961503  5.296334914638608  77.22367188266053  21.607796366233565  -61.44793246636032  22.164113858624546  120.000000
9.0771  0.000000  0.000000  0.000000  -32.494707619369606  1.955962436614598  -14.092120445382049  38.173929335179736  14.403307884965482  6.102207032839827  76.6198981675043  26.141271414434613  -61.25525120137916  22.32628567482859  120.000000
9.13455  0.000000  0.000000  0.000000  -32.49367740482251  2.1098710795195097  -15.247517412763816  38.10551508856918  14.889808933120365  7.113856024699691  76.10523961143588  30.904827544575593  -61.36934557077095  22.400821832886166  120.000000
9.192  0.000000  0.000000  0.000000  -32.600017535525225  2.376779844110974  -16.338642063950363  38.21647638716435  15.42747512599518  8.2891266367642  75.55568894608814  35.78786646508652  -61.623217175828955  22.38893499267158  120.000000
9.24945  0.000000  0.000000  0.000000  -32.82252780992878  2.738963872085379  -17.28348794830137  38.571006331654075  16.00786997463386  9.562240785849896  74.92284200387067  40.718629886097006  -61.89895641578275  22.286452382794995  120.000000
9.3069  0.000000  0.000000  0.000000  -33.16245686899422  3.183243104489134  -17.991221307499902  39.21178010338285  16.61037036064234  10.849283357595574  74.19517727129123  45.65781171454036  -62.096754921966195  22.088597800335116  120.000000
9.36435  0.000000  0.000000  0.000000  -33.60666255697965  3.6929399296080563  -18.37400086691744  40.137564657145376  17.203629526050058  12.050669550126731  73.36945882205112  50.57624976798537  -62.12135758657095  21.78700385023261  120.000000
9.421800000000001  0.000000  0.000000  0.000000  -34.12683405894722  4.237724133737057  -18.359733539583658  41.31772442773846  17.72887536673032  13.068484146966323  72.45781286359919  55.44731769316134  -61.89870994036629  21.383276428835426  120.000000
9.47925  0.000000  0.000000  0.000000  -34.6879879572879  4.767238304329124  -17.903671674339954  42.700250910371615  18.098472280567666  13.828381367495629  71.48587288190251  60.23821787433422  -61.38005090402275  20.898014191348405  120.000000
9.5367  0.000000  0.000000  0.000000  -35.26019183339792  5.2254647723741865  -17.004948849480268  44.214838517230824  18.21455399482586  14.292351476171447  70.4809459051051  64.897291387729  -60.54114019408607  20.36970317522672  120.000000
9.59415  0.000000  0.000000  0.000000  -35.810501667698254  5.556884625766022  -15.714894087866968  45.78631024475444  17.995553153329666  14.464797425412668  69.47510742403755  69.34110204458078  -59.38828309653508  19.84086720344476  120.000000
9.6516  0.000000  0.000000  0.000000  -36.30161982316803  5.723978806173885  -14.135066067925129  47.33633937551641  17.40328481526946  14.391764950937018  68.49647593692966  73.43731413008882  -57.96177744789372  19.345335988373364  120.000000
9.70905  0.000000  0.000000  0.000000  -36.7179097703941  5.738939900598996  -12.388312479479678  48.78416434834145  16.471551156861366  14.155469257908035  67.56560580382529  77.0216975680037  -56.33322035247519  18.911159725297683  120.000000
9.7665  0.000000  0.000000  0.000000  -37.043269499391634  5.651159251790763  -10.58013174626178  50.070933031695446  15.298393203559325  13.849585965922167  66.69284455595933  79.94066065251195  -54.603544839547865  18.561210946151025  120.000000
9.82395  0.000000  0.000000  0.000000  -37.27099579714438  5.528897922386215  -8.80652471293629  51.17352010277981  14.006689831734585  13.539795363877628  65.87156770408946  82.09215300810276  -52.89224164321858  18.314450116339366  120.000000
9.8814  0.000000  0.000000  0.000000  -37.41431759341532  5.4315855053209185  -7.180319630777789  52.090282967271584  12.708428304738385  13.254155227656012  65.0879687239524  83.44622741278462  -51.314698932990204  18.18039945287333  120.000000
9.93885  0.000000  0.000000  0.000000  -37.48303186970452  5.37595281027969  -5.831779032863807  52.820273181849295  11.475152471318992  12.994177117567848  64.3550667432634  84.04931434132929  -49.96010686546159  18.149551597856345  120.000000
9.9963  0.000000  0.000000  0.000000  -37.473849262626324  5.333838835458691  -4.879812644175584  53.35259145881754  10.340365486049597  12.75192330540938  63.71564881563929  83.9870070068641  -48.8830248177545  18.194445825625138  120.000000
10.05375  0.000000  0.000000  0.000000  -37.38381658375892  5.270867242084242  -4.373955500473911  53.67418551633177  9.344445950306861  12.550617100462649  63.1859157679844  83.26390832771116  -48.129294036836235  18.285318039162043  120.000000
10.1112  0.000000  0.000000  0.000000  -37.223481489583484  5.181987122175969  -4.294265813874549  53.7829219659972  8.573579515183072  12.44870144493044  62.72167577533516  81.7796110058242  -47.73922150044836  18.400396415265863  120.000000
10.16865  0.000000  0.000000  0.000000  -37.011422838234886  5.0868752429949335  -4.621590895156259  53.685453543917546  8.135006996832278  12.482113535097678  62.27285814206195  79.47561887030155  -47.701338430630905  18.516802588502923  120.000000
10.2261  0.000000  0.000000  0.000000  -36.760602579720505  4.992367835027442  -5.362610001739409  53.38262596816641  8.104480362122539  12.64761540865175  61.84103456471243  76.40341621619605  -47.932283954635736  18.606533704045194  120.000000
10.28355  0.000000  0.000000  0.000000  -36.474666410525174  4.875646843575223  -6.51860809341092  52.866795394978716  8.501125906460487  12.91491357747695  61.4721491906712  72.69670719243356  -48.29586128824968  18.645886906562385  120.000000
10.341000000000001  0.000000  0.000000  0.000000  -36.151833446376564  4.707266149199141  -8.054516181371312  52.13150885052396  9.296361583952086  13.24200839774407  61.21538885851943  68.55412000443343  -48.638945224892204  18.630984340674605  120.000000
10.39845  0.000000  0.000000  0.000000  -35.79695758079036  4.470158863704476  -9.883540109459817  51.17905194485534  10.423290225788339  13.59748909741324  61.093831149499714  64.19110740615079  -48.83415880505648  18.59101454683979  120.000000
10.4559  0.000000  0.000000  0.000000  -35.429838063693175  4.171173784228894  -11.890263756612026  50.01963081999512  11.78118413278123  13.961090207024425  61.10444887328205  59.77223256446422  -48.801359681984444  18.592660499616542  120.000000
10.51335  0.000000  0.000000  0.000000  -35.06566989452542  3.8362980458843974  -13.959537422968488  48.676869510622296  13.256625469394898  14.318767299156127  61.2260845576327  55.38696329754278  -48.501593273360534  18.718942848755944  120.000000
10.5708  0.000000  0.000000  0.000000  -34.716852536715855  3.495845034592258  -15.985386444982291  47.18928818250917  14.74188189689156  14.661400041769191  61.42442615146174  51.070104442172536  -47.919864486055786  19.043633664903133  120.000000
10.62825  0.000000  0.000000  0.000000  -34.40271965573293  3.16977710145248  -17.8775572653953  45.60811035475811  16.14535283059357  14.98336906061174  61.65253228878594  46.82761009296881  -47.05087391018761  19.600503302449834  120.000000
10.6857  0.000000  0.000000  0.000000  -34.14799919647968  2.8638775478720575  -19.565689618077904  43.996562768207355  17.396256146533457  15.280077616509763  61.85578723174944  42.65907988162659  -45.90035998487352  20.360205807250995  120.000000
10.74315  0.000000  0.000000  0.000000  -33.9631940054564  2.5807704014761894  -21.005151854150352  42.43945935632984  18.457090275121775  15.535719895012367  61.97391109152861  38.574691841914984  -44.48774024756813  21.238683068836284  120.000000
10.8006  0.000000  0.000000  0.000000  -33.836946372711985  2.3116740389823205  -22.175568461002538  41.03017741780564  19.325693628062467  15.726111771026474  61.948080448255375  34.59744889075398  -42.8571789921124  22.124581046424282  120.000000
10.85805  0.000000  0.000000  0.000000  -33.74627154339646  2.040503972737752  -23.07560212168067  39.84419306293797  20.02658534051124  15.83537596413461  61.74233326216141  30.749741862831026  -41.08013281541445  22.913950811736054  120.000000
